<svg xmlns="http://www.w3.org/2000/svg" width="16" height="20"><path fill="#A6AEB7" fill-rule="nonzero" d="M14.972 8.592c0-.804-.61-1.446-1.375-1.446h-2.75v-5.7C10.847.642 10.237 0 9.472 0S8.096.642 8.096 1.446v5.7H5.501c-.765 0-1.375.642-1.375 1.446v1.447h10.92V8.592h-.074Zm0 2.893H4.052S3.287 20 0 20h3.898c1.53 0 2.213-4.656 2.213-4.656s.683 4.177.073 4.656H8.552c1.066-.163 1.22-5.297 1.22-5.297s1.067 5.22.92 5.22h-2.14 3.361c.992-.24 1.066-4.014 1.066-4.014s.455 4.014.309 4.014h-1.449 1.831c2.75.077 2.905-3.937 1.302-8.438Z"/></svg>