<svg xmlns="http://www.w3.org/2000/svg" width="22" height="20"><g fill="#A6AEB7" fill-rule="nonzero"><path d="M5.958 20c-.793 0-1.652-.12-2.38-.361-1.651-.543-2.51-1.627-2.576-3.013-.066-2.109 1.718-2.832 3.106-3.374 1.321-.542 2.048-.843 2.048-1.747 0-1.085-2.048-1.988-2.907-2.109a.785.785 0 0 1-.53-.723.65.65 0 0 1 .728-.482c1.19.18 4.03 1.326 4.03 3.314 0 1.747-1.585 2.35-2.84 2.832-1.455.602-2.38 1.024-2.314 2.289 0 .904.595 1.567 1.652 1.928 1.718.603 4.296.18 4.956-.542.265-.241.661-.301.926-.06.264.24.33.602.066.843C9.262 19.518 7.61 20 5.958 20ZM10.128 15.564c-.116.123.058.43.29.613.23.184.52.245.636.123l2.431-1.963-2.315-1.778-1.042 3.005ZM21.3.294a1.374 1.374 0 0 0-2.026.368l-7.467 10.916 2.315 1.778 7.525-10.915c.464-.675.29-1.656-.347-2.147Z"/></g></svg>