<svg xmlns="http://www.w3.org/2000/svg" width="21" height="21"><path fill="#A6AEB7" fill-rule="nonzero" d="M16.463 6.6V1.76a.894.894 0 0 0-.893-.894H1.26c-.494 0-.894.4-.894.895V16.07c0 .494.4.893.895.893h5.27a7.372 7.372 0 0 0 6.175 3.354c4.069 0 7.378-3.31 7.378-7.378 0-2.695-1.457-5.05-3.62-6.338ZM1.707 15.623V2.207h13.415v3.768a7.328 7.328 0 0 0-2.416-.414c-4.067 0-7.377 3.31-7.377 7.378 0 .947.187 1.85.513 2.683H1.707Zm10.999 3.354a6.044 6.044 0 0 1-6.035-6.037 6.044 6.044 0 0 1 6.035-6.037 6.045 6.045 0 0 1 6.037 6.037 6.044 6.044 0 0 1-6.037 6.037Z"/></svg>