<svg xmlns="http://www.w3.org/2000/svg" width="20" height="20"><g fill="none" fill-rule="nonzero"><path fill="#FFF" d="M12.473 3.704 1.638 14.52c-.419.421-.669.982-.702 1.576l-.38.381a2.102 2.102 0 0 0 .115 2.964 2.085 2.085 0 0 0 2.839 0l.382-.38a2.385 2.385 0 0 0 1.57-.705L16.296 7.541l-3.823-3.837Z"/><path fill="#6D7278" d="M16.626 0c.433 0 .848.17 1.153.473l1.001.989c.638.63.639 1.652.003 2.283l-2.325 2.296.38.376.089.098a1.029 1.029 0 0 1-.089 1.37l-.736.727a1.059 1.059 0 0 1-1.484.002l-.024-.024-9.168 9.021a2.36 2.36 0 0 1-1.352.665l-.192.018-.376.37a2.048 2.048 0 0 1-1.452.595A2.044 2.044 0 0 1 0 17.226c0-.478.17-.94.482-1.306l.12-.129.374-.368c.028-.512.225-.998.558-1.387l.132-.14 9.17-9.024-.105-.102-.181-.18-.089-.098a1.03 1.03 0 0 1 .088-1.37l.735-.728a1.059 1.059 0 0 1 1.485 0l.38.376L15.471.473A1.64 1.64 0 0 1 16.626 0Zm-5.049 5.607-9.169 9.021a1.307 1.307 0 0 0-.37.715l-.014.136-.022.396-.657.65a.986.986 0 0 0 .02 1.404c.353.34.904.376 1.3.086l.1-.087.66-.652.402-.02c.277-.015.54-.115.754-.29l.104-.092 9.165-9.019-2.273-2.25v.002Z"/></g></svg>