<svg xmlns="http://www.w3.org/2000/svg" width="27" height="20"><g fill="#A6AEB7" fill-rule="nonzero"><path d="M18.836 4v1.6c3.32 0 6 2.68 6 6s-2.68 6-6 6v1.6c4.2 0 7.6-3.4 7.6-7.6 0-4.2-3.4-7.6-7.6-7.6Z"/><path d="M19.036 19.2h-12c-.44 0-.8-.36-.8-.8 0-.44.36-.8.8-.8h12c.44 0 .8.36.8.8 0 .44-.36.8-.8.8Zm0-13.6h-15.8c-.44 0-.8-.36-.8-.8 0-.44.36-.8.8-.8h15.8c.44 0 .8.36.8.8 0 .44-.36.8-.8.8Z"/><path d="M.876 5.36a.797.797 0 0 1 0-1.14l3.4-3.4c.32-.32.82-.32 1.14 0 .32.32.32.82 0 1.14l-3.4 3.4c-.32.32-.82.32-1.14 0Z"/><path d="M.876 4.24c.32-.32.82-.32 1.14 0l3.4 3.4c.32.32.32.82 0 1.14-.32.32-.82.32-1.14 0l-3.4-3.4c-.32-.32-.32-.84 0-1.14Z"/></g></svg>