<svg width="350" height="198" xmlns="http://www.w3.org/2000/svg"><defs><linearGradient x1="50%" y1="100%" x2="50%" y2="0%" id="a"><stop stop-color="#B4B8BF" stop-opacity="0" offset="0%"/><stop stop-color="#DDDEDF" offset="100%"/></linearGradient><linearGradient x1="50%" y1="100%" x2="50%" y2="0%" id="b"><stop stop-color="#B4B8BF" stop-opacity="0" offset="0%"/><stop stop-color="#DDDEDF" offset="100%"/></linearGradient><linearGradient x1="50%" y1="100%" x2="50%" y2="0%" id="c"><stop stop-color="#B4B8BF" stop-opacity="0" offset="0%"/><stop stop-color="#DDDEDF" offset="100%"/></linearGradient><linearGradient x1="50%" y1="100%" x2="50%" y2="0%" id="d"><stop stop-color="#B4B8BF" stop-opacity="0" offset="0%"/><stop stop-color="#DDDEDF" offset="100%"/></linearGradient><linearGradient x1="100%" y1="49.879%" x2="0%" y2="49.891%" id="e"><stop stop-color="#B4B8BF" stop-opacity="0" offset="0%"/><stop stop-color="#B4B8BF" stop-opacity=".912" offset="91.181%"/><stop stop-color="#B4B8BF" offset="100%"/></linearGradient></defs><g transform="translate(0 -20.68)" fill="none" fill-rule="evenodd"><path d="M0 210.68c43.37-17.667 101.704-26.5 175-26.5s131.63 8.833 175 26.5" fill="url(#a)" opacity=".3"/><path d="m242 136.18 27.358-27.358c7.81-7.81 20.474-7.81 28.284 0L325 136.18" fill="url(#b)" opacity=".3"/><path d="m49 84.68 19.858-19.858c7.81-7.81 20.474-7.81 28.284 0L117 84.68" fill="url(#c)" opacity=".3"/><path d="m24 115.18 10.858-10.858c7.81-7.81 20.474-7.81 28.284 0L74 115.18" fill="url(#d)" opacity=".304"/><ellipse fill="url(#e)" opacity=".16" cx="174.5" cy="215.18" rx="75" ry="3.5"/><path d="M99.226 202.856c-41.864 1.077-61.628-2.447-59.292-10.573 3.505-12.19 207.134-27.434 234.046-49.094 26.911-21.66-80.248-33.733-81.428-50.61-.787-11.25 24.201-25.195 74.963-41.833" stroke="#393C3D" strokeWidth="7" stroke-linecap="round" stroke-dasharray="14"/><rect fill="#4D5253" x="105" y="117.18" width="140" height="84" rx="16.258"/><rect fill="#393C3D" x="122" y="60.68" width="105.5" height="122" rx="18.065"/><rect fill="#939393" x="132" y="86.68" width="55.5" height="7.5" rx="3.75"/><rect fill="#939393" x="132" y="103.18" width="55.5" height="7.5" rx="3.75"/><rect fill="#939393" x="132" y="120.68" width="77" height="7.5" rx="3.75"/><path d="M245 128.18 114.619 186.51a16.258 16.258 0 0 0-9.619 14.84v.146c0 5.9 4.783 10.683 10.683 10.683h113.059c8.979 0 16.258-7.28 16.258-16.258V128.18Z" fill="#807D7D"/><path d="m105 128.18 130.381 58.331a16.258 16.258 0 0 1 9.619 14.84v.146c0 5.9-4.783 10.683-10.683 10.683H121.258c-8.979 0-16.258-7.28-16.258-16.258V128.18Z" fill="#939393"/><path d="m265.003 53.662 4.372-16.15 42.354-10.22a.475.475 0 0 1 .337.88l-47.063 25.49Z" fill="#807D7D"/><path fill="#807D7D" d="m274.65 50.428-4.619-7.743-5.028 10.977z"/><path d="m312.496 26.157-51.225-5.2a1.5 1.5 0 0 0-1.399 2.326l9.319 13.953c.11.165.313.244.506.198l39.48-9.527L270.5 42.51a.475.475 0 0 0-.012.004l-.011.005a.475.475 0 0 0-.245.626l9.419 21.487a2.1 2.1 0 0 0 3.554.48l29.786-36.75a.95.95 0 0 0-.215-1.392.466.466 0 0 0 .134-.45.475.475 0 0 0-.414-.362Z" fill="#939393"/></g></svg>