<svg width="350" height="198" xmlns="http://www.w3.org/2000/svg"><defs><linearGradient x1="50%" y1="100%" x2="50%" y2="0%" id="a"><stop stop-color="#B4B8BF" stop-opacity="0" offset="0%"/><stop stop-color="#B4B8BF" offset="100%"/></linearGradient><linearGradient x1="50%" y1="100%" x2="50%" y2="0%" id="b"><stop stop-color="#B4B8BF" stop-opacity="0" offset="0%"/><stop stop-color="#B4B8BF" offset="100%"/></linearGradient><linearGradient x1="50%" y1="100%" x2="50%" y2="0%" id="c"><stop stop-color="#B4B8BF" stop-opacity="0" offset="0%"/><stop stop-color="#B4B8BF" offset="100%"/></linearGradient><linearGradient x1="50%" y1="100%" x2="50%" y2="0%" id="d"><stop stop-color="#B4B8BF" stop-opacity="0" offset="0%"/><stop stop-color="#B4B8BF" offset="100%"/></linearGradient><linearGradient x1="100%" y1="49.879%" x2="0%" y2="49.891%" id="e"><stop stop-color="#B4B8BF" stop-opacity="0" offset="0%"/><stop stop-color="#B4B8BF" stop-opacity=".912" offset="91.181%"/><stop stop-color="#B4B8BF" offset="100%"/></linearGradient></defs><g transform="translate(0 -41)" fill="none" fill-rule="evenodd"><path d="M0 231c43.37-17.667 101.704-26.5 175-26.5s131.63 8.833 175 26.5" fill="url(#a)" opacity=".16"/><path d="m242 156.5 27.358-27.358c7.81-7.81 20.474-7.81 28.284 0L325 156.5" fill="url(#b)" opacity=".26"/><path d="m49 105 19.858-19.858c7.81-7.81 20.474-7.81 28.284 0L117 105" fill="url(#c)" opacity=".26"/><path d="m24 135.5 10.858-10.858c7.81-7.81 20.474-7.81 28.284 0L74 135.5" fill="url(#d)" opacity=".26"/><ellipse fill="url(#e)" opacity=".16" cx="174.5" cy="235.5" rx="75" ry="3.5"/><path d="M99.226 223.176c-41.864 1.077-61.628-2.447-59.292-10.573 3.505-12.189 207.134-27.434 234.046-49.093 26.911-21.66-80.248-33.734-81.428-50.61-.787-11.25 24.201-25.196 74.963-41.834" stroke="#E6E8ED" strokeWidth="7" stroke-linecap="round" stroke-dasharray="14"/><g transform="translate(75 50)"><rect fill="#C9CDD4" x="30" y="87.5" width="140" height="84" rx="16.258"/><rect fill="#E6E8ED" x="47" y="31" width="105.5" height="122" rx="18.065"/><rect fill="#F0F2F5" x="57" y="57" width="55.5" height="7.5" rx="3.75"/><rect fill="#F0F2F5" x="57" y="73.5" width="55.5" height="7.5" rx="3.75"/><rect fill="#F0F2F5" x="57" y="91" width="77" height="7.5" rx="3.75"/><path d="M170 98.5 39.619 156.832A16.258 16.258 0 0 0 30 171.672v.145c0 5.9 4.783 10.683 10.683 10.683h113.059c8.979 0 16.258-7.279 16.258-16.258V98.5Z" fill="#D7DAE0"/><path d="m30 98.5 130.381 58.332a16.258 16.258 0 0 1 9.619 14.84v.145c0 5.9-4.783 10.683-10.683 10.683H46.258C37.28 182.5 30 175.221 30 166.242V98.5Z" fill="#DFE2E8"/></g><path d="m265.003 73.982 4.372-16.15 42.354-10.22a.475.475 0 0 1 .337.88l-47.063 25.49Z" fill="#C9CDD4"/><path fill="#B4B8BF" d="m274.65 70.748-4.619-7.742-5.028 10.976z"/><path d="m312.496 46.477-51.225-5.199a1.5 1.5 0 0 0-1.399 2.326l9.319 13.952c.11.166.313.245.506.198l39.48-9.527L270.5 62.83a.475.475 0 0 0-.012.004l-.011.005a.475.475 0 0 0-.245.626l9.419 21.488a2.1 2.1 0 0 0 3.554.479l29.786-36.75a.95.95 0 0 0-.215-1.391.466.466 0 0 0 .134-.452.475.475 0 0 0-.414-.36Z" fill="#D7DAE0"/></g></svg>